<svg width="96" height="68" viewBox="0 0 96 68" fill="none" xmlns="http://www.w3.org/2000/svg">
<path d="M33.6035 25.293C32.9199 22.3437 31.25 20.2832 28.5938 19.1113C27.1094 18.4668 25.459 18.1445 23.6426 18.1445C20.166 18.1445 17.3047 19.4629 15.0586 22.0996C12.832 24.7168 11.7188 28.6621 11.7188 33.9355C11.7188 39.248 12.9297 43.0078 15.3516 45.2148C17.7734 47.4219 20.5273 48.5254 23.6133 48.5254C26.6406 48.5254 29.1211 47.6562 31.0547 45.918C32.9883 44.1602 34.1797 41.8652 34.6289 39.0332H24.6387V31.8262H42.627V55H36.6504L35.7422 49.6094C34.0039 51.6602 32.4414 53.1055 31.0547 53.9453C28.6719 55.4102 25.7422 56.1426 22.2656 56.1426C16.543 56.1426 11.8555 54.1602 8.20312 50.1953C4.39453 46.2109 2.49023 40.7617 2.49023 33.8477C2.49023 26.8555 4.41406 21.25 8.26172 17.0312C12.1094 12.8125 17.1973 10.7031 23.5254 10.7031C29.0137 10.7031 33.418 12.0996 36.7383 14.8926C40.0781 17.666 41.9922 21.1328 42.4805 25.293H33.6035ZM70.3711 48.5547C73.9453 48.5547 76.7773 47.2363 78.8672 44.5996C80.9766 41.9629 82.0312 38.2129 82.0312 33.3496C82.0312 28.5059 80.9766 24.7656 78.8672 22.1289C76.7773 19.4727 73.9453 18.1445 70.3711 18.1445C66.7969 18.1445 63.9453 19.4629 61.8164 22.0996C59.6875 24.7363 58.623 28.4863 58.623 33.3496C58.623 38.2129 59.6875 41.9629 61.8164 44.5996C63.9453 47.2363 66.7969 48.5547 70.3711 48.5547ZM91.0547 33.3496C91.0547 41.1035 88.877 47.041 84.5215 51.1621C81.2598 54.5215 76.543 56.2012 70.3711 56.2012C64.1992 56.2012 59.4824 54.5215 56.2207 51.1621C51.8457 47.041 49.6582 41.1035 49.6582 33.3496C49.6582 25.4395 51.8457 19.502 56.2207 15.5371C59.4824 12.1777 64.1992 10.498 70.3711 10.498C76.543 10.498 81.2598 12.1777 84.5215 15.5371C88.877 19.502 91.0547 25.4395 91.0547 33.3496Z" fill="#002580"/>
<path d="M34.7856 22.6416L32.5681 20.8461L30.3077 22.5753L31.169 19.6918L28.9811 17.8525L31.7309 17.8659L32.6391 15L33.4773 17.8918L36.2264 17.9598L33.9947 19.7337L34.7856 22.6416Z" fill="white"/>
<path d="M8.52141 37.6416L6.30391 35.8461L4.04358 37.5753L4.90484 34.6918L2.71698 32.8525L5.46678 32.8659L6.37493 30L7.21313 32.8918L9.96226 32.9598L7.7305 34.7337L8.52141 37.6416Z" fill="white"/>
<path d="M79.1629 45.6416L76.9454 43.8461L74.6851 45.5753L75.5464 42.6918L73.3585 40.8525L76.1083 40.8659L77.0164 38L77.8546 40.8918L80.6038 40.9598L78.372 42.7337L79.1629 45.6416Z" fill="white"/>
<path d="M51.0875 33.6416L48.8699 31.8461L46.6096 33.5753L47.4709 30.6918L45.283 28.8525L48.0328 28.8659L48.941 26L49.7792 28.8918L52.5283 28.9598L50.2965 30.7337L51.0875 33.6416Z" fill="white"/>
<path d="M36.5969 47.6416L34.3794 45.8461L32.119 47.5753L32.9803 44.6918L30.7924 42.8525L33.5423 42.8659L34.4504 40L35.2886 42.8918L38.0377 42.9598L35.806 44.7337L36.5969 47.6416Z" fill="white"/>
</svg>
