<svg width="310" height="60" viewBox="0 0 310 60" fill="none" xmlns="http://www.w3.org/2000/svg">
<path d="M33.6035 25.293C32.9199 22.3437 31.25 20.2832 28.5938 19.1113C27.1094 18.4668 25.459 18.1445 23.6426 18.1445C20.166 18.1445 17.3047 19.4629 15.0586 22.0996C12.832 24.7168 11.7188 28.6621 11.7188 33.9355C11.7188 39.248 12.9297 43.0078 15.3516 45.2148C17.7734 47.4219 20.5273 48.5254 23.6133 48.5254C26.6406 48.5254 29.1211 47.6562 31.0547 45.918C32.9883 44.1602 34.1797 41.8652 34.6289 39.0332H24.6387V31.8262H42.627V55H36.6504L35.7422 49.6094C34.0039 51.6602 32.4414 53.1055 31.0547 53.9453C28.6719 55.4102 25.7422 56.1426 22.2656 56.1426C16.543 56.1426 11.8555 54.1602 8.20312 50.1953C4.39453 46.2109 2.49023 40.7617 2.49023 33.8477C2.49023 26.8555 4.41406 21.25 8.26172 17.0312C12.1094 12.8125 17.1973 10.7031 23.5254 10.7031C29.0137 10.7031 33.418 12.0996 36.7383 14.8926C40.0781 17.666 41.9922 21.1328 42.4805 25.293H33.6035ZM70.3711 48.5547C73.9453 48.5547 76.7773 47.2363 78.8672 44.5996C80.9766 41.9629 82.0312 38.2129 82.0312 33.3496C82.0312 28.5059 80.9766 24.7656 78.8672 22.1289C76.7773 19.4727 73.9453 18.1445 70.3711 18.1445C66.7969 18.1445 63.9453 19.4629 61.8164 22.0996C59.6875 24.7363 58.623 28.4863 58.623 33.3496C58.623 38.2129 59.6875 41.9629 61.8164 44.5996C63.9453 47.2363 66.7969 48.5547 70.3711 48.5547ZM91.0547 33.3496C91.0547 41.1035 88.877 47.041 84.5215 51.1621C81.2598 54.5215 76.543 56.2012 70.3711 56.2012C64.1992 56.2012 59.4824 54.5215 56.2207 51.1621C51.8457 47.041 49.6582 41.1035 49.6582 33.3496C49.6582 25.4395 51.8457 19.502 56.2207 15.5371C59.4824 12.1777 64.1992 10.498 70.3711 10.498C76.543 10.498 81.2598 12.1777 84.5215 15.5371C88.877 19.502 91.0547 25.4395 91.0547 33.3496Z" fill="#002580"/>
<path d="M33.6035 25.293L32.6293 25.5188L32.8088 26.293H33.6035V25.293ZM28.5938 19.1113L28.9974 18.1964L28.992 18.1941L28.5938 19.1113ZM15.0586 22.0996L14.2974 21.4511L14.2969 21.4516L15.0586 22.0996ZM31.0547 45.918L31.7232 46.6616L31.7274 46.6579L31.0547 45.918ZM34.6289 39.0332L35.6166 39.1899L35.8 38.0332H34.6289V39.0332ZM24.6387 39.0332H23.6387V40.0332H24.6387V39.0332ZM24.6387 31.8262V30.8262H23.6387V31.8262H24.6387ZM42.627 31.8262H43.627V30.8262H42.627V31.8262ZM42.627 55V56H43.627V55H42.627ZM36.6504 55L35.6643 55.1661L35.8048 56H36.6504V55ZM35.7422 49.6094L36.7283 49.4432L36.3708 47.3212L34.9794 48.9628L35.7422 49.6094ZM31.0547 53.9453L30.5366 53.0899L30.531 53.0934L31.0547 53.9453ZM8.20312 50.1953L8.93862 49.5178L8.93237 49.511L8.926 49.5043L8.20312 50.1953ZM36.7383 14.8926L36.0945 15.6579L36.0994 15.6619L36.7383 14.8926ZM42.4805 25.293V26.293H43.6047L43.4737 25.1764L42.4805 25.293ZM34.5777 25.0672C33.8266 21.8266 31.9558 19.5016 28.9974 18.1964L28.1901 20.0262C30.5442 21.0648 32.0133 22.8609 32.6293 25.5188L34.5777 25.0672ZM28.992 18.1941C27.3674 17.4886 25.5792 17.1445 23.6426 17.1445V19.1445C25.3387 19.1445 26.8513 19.4449 28.1955 20.0286L28.992 18.1941ZM23.6426 17.1445C19.8743 17.1445 16.7343 18.5904 14.2974 21.4511L15.8198 22.7481C17.8751 20.3354 20.4578 19.1445 23.6426 19.1445V17.1445ZM14.2969 21.4516C11.8528 24.3246 10.7188 28.5461 10.7188 33.9355H12.7188C12.7188 28.7781 13.8113 25.109 15.8203 22.7476L14.2969 21.4516ZM10.7188 33.9355C10.7188 39.3597 11.9493 43.4673 14.678 45.954L16.0251 44.4757C13.9101 42.5483 12.7188 39.1364 12.7188 33.9355H10.7188ZM14.678 45.954C17.2716 48.3175 20.2618 49.5254 23.6133 49.5254V47.5254C20.7929 47.5254 18.2753 46.5263 16.0251 44.4757L14.678 45.954ZM23.6133 49.5254C26.8443 49.5254 29.5763 48.5917 31.7232 46.6616L30.3861 45.1743C28.6658 46.7208 26.4369 47.5254 23.6133 47.5254V49.5254ZM31.7274 46.6579C33.8459 44.732 35.1354 42.2232 35.6166 39.1899L33.6413 38.8765C33.224 41.5073 32.1307 43.5883 30.382 45.178L31.7274 46.6579ZM34.6289 38.0332H24.6387V40.0332H34.6289V38.0332ZM25.6387 39.0332V31.8262H23.6387V39.0332H25.6387ZM24.6387 32.8262H42.627V30.8262H24.6387V32.8262ZM41.627 31.8262V55H43.627V31.8262H41.627ZM42.627 54H36.6504V56H42.627V54ZM37.6365 54.8339L36.7283 49.4432L34.7561 49.7755L35.6643 55.1661L37.6365 54.8339ZM34.9794 48.9628C33.2713 50.9779 31.7902 52.3308 30.5367 53.09L31.5727 54.8007C33.0926 53.8802 34.7365 52.3424 36.505 50.256L34.9794 48.9628ZM30.531 53.0934C28.3399 54.4404 25.602 55.1426 22.2656 55.1426V57.1426C25.8824 57.1426 29.0039 56.3799 31.5784 54.7972L30.531 53.0934ZM22.2656 55.1426C16.8031 55.1426 12.3889 53.2633 8.93862 49.5178L7.46763 50.8728C11.322 55.057 16.2829 57.1426 22.2656 57.1426V55.1426ZM8.926 49.5043C5.33762 45.7503 3.49023 40.5729 3.49023 33.8477H1.49023C1.49023 40.9505 3.45144 46.6715 7.48025 50.8863L8.926 49.5043ZM3.49023 33.8477C3.49023 27.0461 5.3567 21.7004 9.00057 17.7051L7.52286 16.3574C3.47143 20.7996 1.49023 26.6649 1.49023 33.8477H3.49023ZM9.00057 17.7051C12.6371 13.7179 17.4446 11.7031 23.5254 11.7031V9.70312C16.95 9.70312 11.5817 11.9071 7.52286 16.3574L9.00057 17.7051ZM23.5254 11.7031C28.8422 11.7031 32.9981 13.0531 36.0946 15.6578L37.382 14.1273C33.8379 11.1461 29.1852 9.70312 23.5254 9.70312V11.7031ZM36.0994 15.6619C39.2497 18.2779 41.0301 21.5145 41.4873 25.4095L43.4737 25.1764C42.9543 20.7511 40.9065 17.0541 37.3771 14.1233L36.0994 15.6619ZM42.4805 24.293H33.6035V26.293H42.4805V24.293ZM78.8672 44.5996L78.0863 43.9749L78.0835 43.9785L78.8672 44.5996ZM78.8672 22.1289L78.0812 22.7473L78.0863 22.7536L78.8672 22.1289ZM84.5215 51.1621L83.8342 50.4357L83.8188 50.4503L83.804 50.4655L84.5215 51.1621ZM56.2207 51.1621L56.9382 50.4655L56.9226 50.4495L56.9064 50.4342L56.2207 51.1621ZM56.2207 15.5371L56.8922 16.2781L56.9159 16.2566L56.9382 16.2337L56.2207 15.5371ZM84.5215 15.5371L83.804 16.2337L83.8255 16.2558L83.8483 16.2766L84.5215 15.5371ZM70.3711 49.5547C74.2287 49.5547 77.3581 48.1135 79.6509 45.2208L78.0835 43.9785C76.1966 46.3592 73.6619 47.5547 70.3711 47.5547V49.5547ZM79.6481 45.2243C81.95 42.3469 83.0312 38.3427 83.0312 33.3496H81.0312C81.0312 38.0831 80.0031 41.5789 78.0863 43.9749L79.6481 45.2243ZM83.0312 33.3496C83.0312 28.3749 81.9495 24.381 79.6481 21.5042L78.0863 22.7536C80.0036 25.1502 81.0312 28.6368 81.0312 33.3496H83.0312ZM79.6531 21.5106C77.3614 18.5977 74.2315 17.1445 70.3711 17.1445V19.1445C73.6591 19.1445 76.1933 20.3476 78.0813 22.7472L79.6531 21.5106ZM70.3711 17.1445C66.5137 17.1445 63.3688 18.5851 61.0384 21.4714L62.5945 22.7278C64.5219 20.3407 67.08 19.1445 70.3711 19.1445V17.1445ZM61.0384 21.4714C58.7149 24.3491 57.623 28.3548 57.623 33.3496H59.623C59.623 28.6179 60.6601 25.1235 62.5945 22.7278L61.0384 21.4714ZM57.623 33.3496C57.623 38.3445 58.7149 42.3501 61.0384 45.2278L62.5945 43.9714C60.6601 41.5757 59.623 38.0813 59.623 33.3496H57.623ZM61.0384 45.2278C63.3688 48.1141 66.5137 49.5547 70.3711 49.5547V47.5547C67.08 47.5547 64.5219 46.3586 62.5945 43.9714L61.0384 45.2278ZM90.0547 33.3496C90.0547 40.9136 87.9358 46.5548 83.8342 50.4357L85.2088 51.8885C89.8181 47.5272 92.0547 41.2935 92.0547 33.3496H90.0547ZM83.804 50.4655C80.785 53.5749 76.3623 55.2012 70.3711 55.2012V57.2012C76.7237 57.2012 81.7345 55.4681 85.2389 51.8587L83.804 50.4655ZM70.3711 55.2012C64.3799 55.2012 59.9571 53.5749 56.9382 50.4655L55.5032 51.8587C59.0077 55.4681 64.0185 57.2012 70.3711 57.2012V55.2012ZM56.9064 50.4342C52.7861 46.553 50.6582 40.9123 50.6582 33.3496H48.6582C48.6582 41.2948 50.9053 47.529 55.535 51.89L56.9064 50.4342ZM50.6582 33.3496C50.6582 25.6213 52.7908 19.995 56.8922 16.2781L55.5492 14.7961C50.9006 19.0089 48.6582 25.2576 48.6582 33.3496H50.6582ZM56.9382 16.2337C59.9571 13.1243 64.3799 11.498 70.3711 11.498V9.49805C64.0185 9.49805 59.0077 11.2311 55.5032 14.8405L56.9382 16.2337ZM70.3711 11.498C76.3623 11.498 80.785 13.1243 83.804 16.2337L85.2389 14.8405C81.7345 11.2311 76.7237 9.49805 70.3711 9.49805V11.498ZM83.8483 16.2766C87.9311 19.9932 90.0547 25.62 90.0547 33.3496H92.0547C92.0547 25.259 89.8228 19.0107 85.1947 14.7976L83.8483 16.2766Z" fill="black" fill-opacity="0.2"/>
<path d="M12.0057 23.2258L10.4754 22.0889L8.91549 23.1838L9.50985 21.358L8 20.1933L9.89765 20.2018L10.5244 18.3871L11.1028 20.2182L13 20.2613L11.4599 21.3845L12.0057 23.2258Z" fill="white"/>
<path d="M20.0057 52.258L18.4754 51.1211L16.9155 52.216L17.5099 50.3902L16 49.2255L17.8977 49.234L18.5244 47.4193L19.1028 49.2504L21 49.2935L19.4599 50.4167L20.0057 52.258Z" fill="white"/>
<path d="M40.0057 37.7419L38.4754 36.605L36.9155 37.6999L37.5099 35.8741L36 34.7094L37.8977 34.7179L38.5244 32.9032L39.1028 34.7343L41 34.7774L39.4599 35.9006L40.0057 37.7419Z" fill="white"/>
<path d="M59.0057 23.2258L57.4754 22.0889L55.9155 23.1838L56.5099 21.358L55 20.1933L56.8977 20.2018L57.5244 18.3871L58.1028 20.2182L60 20.2613L58.4599 21.3845L59.0057 23.2258Z" fill="white"/>
<path d="M83.0057 49.3548L81.4754 48.2179L79.9155 49.3128L80.5099 47.487L79 46.3223L80.8977 46.3308L81.5244 44.5161L82.1028 46.3472L84 46.3903L82.4599 47.5135L83.0057 49.3548Z" fill="white"/>
<path d="M107.057 29.2593H113.034L105.358 50.5483H99.479L91.8423 29.2593H98.0923L102.526 44.9624L107.057 29.2593ZM121.92 26.7202H116.276V21.5835H121.92V26.7202ZM116.276 29.2593H121.92V50.5483H116.276V29.2593ZM135.182 28.7515C136.471 28.7515 137.617 29.0379 138.62 29.6108C139.622 30.1707 140.436 30.952 141.061 31.9546V21.7983H146.706V50.5483H141.295V47.5991C140.501 48.8621 139.596 49.7801 138.581 50.353C137.565 50.9259 136.302 51.2124 134.792 51.2124C132.305 51.2124 130.208 50.2098 128.502 48.2046C126.81 46.1864 125.963 43.6017 125.963 40.4507C125.963 36.8179 126.797 33.9598 128.463 31.8765C130.143 29.7931 132.383 28.7515 135.182 28.7515ZM136.393 46.5249C137.969 46.5249 139.167 45.939 139.987 44.7671C140.807 43.5952 141.217 42.0783 141.217 40.2163C141.217 37.6121 140.56 35.7502 139.245 34.6304C138.437 33.9533 137.5 33.6147 136.432 33.6147C134.805 33.6147 133.607 34.2332 132.838 35.4702C132.083 36.6942 131.706 38.2176 131.706 40.0405C131.706 42.0067 132.09 43.5822 132.858 44.7671C133.639 45.939 134.818 46.5249 136.393 46.5249ZM173.151 21.7593V26.8569H164.538V50.5483H158.483V26.8569H149.831V21.7593H173.151ZM187.799 28.7515C187.903 28.7515 187.988 28.758 188.053 28.771C188.131 28.771 188.294 28.7775 188.542 28.7905V34.4937C188.19 34.4546 187.877 34.4285 187.604 34.4155C187.331 34.4025 187.109 34.396 186.94 34.396C184.7 34.396 183.196 35.1252 182.428 36.5835C181.999 37.4038 181.784 38.6668 181.784 40.3726V50.5483H176.178V29.2593H181.491V32.9702C182.35 31.5509 183.099 30.5809 183.737 30.0601C184.778 29.1877 186.133 28.7515 187.799 28.7515ZM203.561 40.1968C203.209 40.4181 202.851 40.6004 202.487 40.7437C202.135 40.8739 201.647 40.9976 201.022 41.1147L199.772 41.3491C198.6 41.5575 197.76 41.8114 197.252 42.1108C196.393 42.6187 195.963 43.4064 195.963 44.4741C195.963 45.4246 196.224 46.1147 196.745 46.5444C197.278 46.9611 197.923 47.1694 198.678 47.1694C199.876 47.1694 200.976 46.8179 201.979 46.1147C202.995 45.4116 203.522 44.1291 203.561 42.2671V40.1968ZM200.182 37.5991C201.211 37.4689 201.946 37.3062 202.389 37.1108C203.183 36.7723 203.581 36.245 203.581 35.5288C203.581 34.6564 203.275 34.0575 202.663 33.7319C202.064 33.3934 201.178 33.2241 200.006 33.2241C198.691 33.2241 197.76 33.5496 197.213 34.2007C196.823 34.6825 196.562 35.3335 196.432 36.1538H191.061C191.178 34.2918 191.699 32.7619 192.624 31.564C194.095 29.689 196.621 28.7515 200.202 28.7515C202.532 28.7515 204.603 29.2137 206.413 30.1382C208.222 31.0627 209.127 32.8075 209.127 35.3726V45.1382C209.127 45.8153 209.14 46.6356 209.167 47.5991C209.206 48.3283 209.316 48.8231 209.499 49.0835C209.681 49.3439 209.954 49.5588 210.319 49.728V50.5483H204.264C204.095 50.1187 203.978 49.715 203.913 49.3374C203.847 48.9598 203.795 48.5301 203.756 48.0483C202.988 48.8817 202.103 49.5913 201.1 50.1772C199.902 50.8674 198.548 51.2124 197.038 51.2124C195.111 51.2124 193.515 50.6655 192.252 49.5718C191.002 48.465 190.377 46.9025 190.377 44.8843C190.377 42.2671 191.387 40.3726 193.405 39.2007C194.512 38.5627 196.139 38.1069 198.288 37.8335L200.182 37.5991ZM226.803 36.896C226.699 36.1017 226.432 35.3856 226.002 34.7476C225.377 33.8882 224.407 33.4585 223.092 33.4585C221.217 33.4585 219.935 34.3895 219.245 36.2515C218.88 37.241 218.698 38.5562 218.698 40.1968C218.698 41.7593 218.88 43.0158 219.245 43.9663C219.909 45.7371 221.159 46.6226 222.995 46.6226C224.297 46.6226 225.221 46.271 225.768 45.5679C226.315 44.8647 226.647 43.9533 226.764 42.8335H232.448C232.318 44.5262 231.706 46.1278 230.612 47.6382C228.867 50.0731 226.282 51.2905 222.858 51.2905C219.433 51.2905 216.914 50.2749 215.299 48.2437C213.685 46.2124 212.877 43.5757 212.877 40.3335C212.877 36.6746 213.769 33.8296 215.553 31.7983C217.337 29.7671 219.798 28.7515 222.936 28.7515C225.605 28.7515 227.786 29.3504 229.479 30.5483C231.185 31.7463 232.194 33.8621 232.506 36.896H226.803ZM236.295 21.8569H241.764V37.3647L248.698 29.3569H255.592L248.151 37.5015L255.885 50.5483H249.167L244.069 41.4468L241.764 43.8491V50.5483H236.295V21.8569ZM267.018 33.2827C265.729 33.2827 264.726 33.6864 264.01 34.4937C263.307 35.3009 262.864 36.3947 262.682 37.7749H271.334C271.243 36.3035 270.794 35.1903 269.987 34.4351C269.193 33.6668 268.203 33.2827 267.018 33.2827ZM267.018 28.6929C268.789 28.6929 270.384 29.0249 271.803 29.689C273.222 30.353 274.394 31.4012 275.319 32.8335C276.152 34.0965 276.693 35.5614 276.94 37.228C277.083 38.2046 277.142 39.6108 277.116 41.4468H262.545C262.624 43.5822 263.294 45.0796 264.557 45.939C265.325 46.4728 266.25 46.7397 267.331 46.7397C268.476 46.7397 269.407 46.4142 270.124 45.7632C270.514 45.4116 270.859 44.9233 271.159 44.2983H276.842C276.699 45.5614 276.042 46.8439 274.87 48.146C273.047 50.2163 270.495 51.2515 267.213 51.2515C264.505 51.2515 262.116 50.3791 260.045 48.6343C257.975 46.8895 256.94 44.0509 256.94 40.1187C256.94 36.4338 257.871 33.6082 259.733 31.6421C261.608 29.6759 264.036 28.6929 267.018 28.6929ZM292.448 28.7515C292.552 28.7515 292.637 28.758 292.702 28.771C292.78 28.771 292.943 28.7775 293.19 28.7905V34.4937C292.838 34.4546 292.526 34.4285 292.252 34.4155C291.979 34.4025 291.758 34.396 291.588 34.396C289.349 34.396 287.845 35.1252 287.077 36.5835C286.647 37.4038 286.432 38.6668 286.432 40.3726V50.5483H280.827V29.2593H286.139V32.9702C286.999 31.5509 287.747 30.5809 288.385 30.0601C289.427 29.1877 290.781 28.7515 292.448 28.7515Z" fill="white"/>
<path d="M107.057 29.2593V28.2593H106.305L106.096 28.982L107.057 29.2593ZM113.034 29.2593L113.974 29.5985L114.457 28.2593H113.034V29.2593ZM105.358 50.5483V51.5483H106.06L106.299 50.8875L105.358 50.5483ZM99.479 50.5483L98.5377 50.886L98.7753 51.5483H99.479V50.5483ZM91.8423 29.2593V28.2593H90.4212L90.901 29.5969L91.8423 29.2593ZM98.0923 29.2593L99.0547 28.9876L98.849 28.2593H98.0923V29.2593ZM102.526 44.9624L101.564 45.2341L102.515 48.6056L103.487 45.2396L102.526 44.9624ZM107.057 30.2593H113.034V28.2593H107.057V30.2593ZM112.093 28.9201L104.417 50.2092L106.299 50.8875L113.974 29.5985L112.093 28.9201ZM105.358 49.5483H99.479V51.5483H105.358V49.5483ZM100.42 50.2107L92.7836 28.9216L90.901 29.5969L98.5377 50.886L100.42 50.2107ZM91.8423 30.2593H98.0923V28.2593H91.8423V30.2593ZM97.1299 29.531L101.564 45.2341L103.488 44.6907L99.0547 28.9876L97.1299 29.531ZM103.487 45.2396L108.018 29.5365L106.096 28.982L101.565 44.6852L103.487 45.2396ZM121.92 26.7202V27.7202H122.92V26.7202H121.92ZM116.276 26.7202H115.276V27.7202H116.276V26.7202ZM116.276 21.5835V20.5835H115.276V21.5835H116.276ZM121.92 21.5835H122.92V20.5835H121.92V21.5835ZM116.276 29.2593V28.2593H115.276V29.2593H116.276ZM121.92 29.2593H122.92V28.2593H121.92V29.2593ZM121.92 50.5483V51.5483H122.92V50.5483H121.92ZM116.276 50.5483H115.276V51.5483H116.276V50.5483ZM121.92 25.7202H116.276V27.7202H121.92V25.7202ZM117.276 26.7202V21.5835H115.276V26.7202H117.276ZM116.276 22.5835H121.92V20.5835H116.276V22.5835ZM120.92 21.5835V26.7202H122.92V21.5835H120.92ZM116.276 30.2593H121.92V28.2593H116.276V30.2593ZM120.92 29.2593V50.5483H122.92V29.2593H120.92ZM121.92 49.5483H116.276V51.5483H121.92V49.5483ZM117.276 50.5483V29.2593H115.276V50.5483H117.276ZM138.62 29.6108L138.123 30.4791L138.132 30.4839L138.62 29.6108ZM141.061 31.9546L140.212 32.4836L142.061 35.4491V31.9546H141.061ZM141.061 21.7983V20.7983H140.061V21.7983H141.061ZM146.706 21.7983H147.706V20.7983H146.706V21.7983ZM146.706 50.5483V51.5483H147.706V50.5483H146.706ZM141.295 50.5483H140.295V51.5483H141.295V50.5483ZM141.295 47.5991H142.295V44.1305L140.449 47.0668L141.295 47.5991ZM128.502 48.2046L127.736 48.8472L127.741 48.8525L128.502 48.2046ZM128.463 31.8765L127.685 31.2488L127.683 31.2518L128.463 31.8765ZM139.245 34.6304L139.893 33.869L139.887 33.8642L139.245 34.6304ZM132.838 35.4702L131.989 34.9426L131.987 34.9451L132.838 35.4702ZM132.858 44.7671L132.019 45.3112L132.026 45.3218L132.858 44.7671ZM135.182 29.7515C136.318 29.7515 137.289 30.0022 138.123 30.4791L139.116 28.7426C137.945 28.0736 136.625 27.7515 135.182 27.7515V29.7515ZM138.132 30.4839C138.983 30.959 139.674 31.62 140.212 32.4836L141.91 31.4256C141.198 30.2839 140.262 29.3824 139.107 28.7378L138.132 30.4839ZM142.061 31.9546V21.7983H140.061V31.9546H142.061ZM141.061 22.7983H146.706V20.7983H141.061V22.7983ZM145.706 21.7983V50.5483H147.706V21.7983H145.706ZM146.706 49.5483H141.295V51.5483H146.706V49.5483ZM142.295 50.5483V47.5991H140.295V50.5483H142.295ZM140.449 47.0668C139.719 48.2275 138.925 49.0104 138.089 49.482L139.072 51.224C140.267 50.5498 141.283 49.4968 142.142 48.1315L140.449 47.0668ZM138.089 49.482C137.261 49.949 136.179 50.2124 134.792 50.2124V52.2124C136.425 52.2124 137.868 51.9029 139.072 51.224L138.089 49.482ZM134.792 50.2124C132.617 50.2124 130.793 49.3534 129.264 47.5567L127.741 48.8525C129.624 51.0662 131.992 52.2124 134.792 52.2124V50.2124ZM129.269 47.562C127.755 45.7576 126.963 43.4149 126.963 40.4507H124.963C124.963 43.7886 125.864 46.6152 127.736 48.8472L129.269 47.562ZM126.963 40.4507C126.963 36.9634 127.763 34.3525 129.244 32.5012L127.683 31.2518C125.83 33.5671 124.963 36.6724 124.963 40.4507H126.963ZM129.242 32.5041C130.722 30.6685 132.669 29.7515 135.182 29.7515V27.7515C132.096 27.7515 129.564 28.9178 127.685 31.2488L129.242 32.5041ZM136.393 47.5249C138.256 47.5249 139.777 46.8099 140.806 45.3406L139.168 44.1936C138.556 45.068 137.681 45.5249 136.393 45.5249V47.5249ZM140.806 45.3406C141.775 43.9564 142.217 42.222 142.217 40.2163H140.217C140.217 41.9346 139.839 43.234 139.168 44.1936L140.806 45.3406ZM142.217 40.2163C142.217 37.4696 141.525 35.2585 139.893 33.869L138.596 35.3918C139.595 36.2418 140.217 37.7546 140.217 40.2163H142.217ZM139.887 33.8642C138.897 33.0339 137.731 32.6147 136.432 32.6147V34.6147C137.268 34.6147 137.977 34.8727 138.602 35.3966L139.887 33.8642ZM136.432 32.6147C134.507 32.6147 132.964 33.3729 131.989 34.9426L133.688 35.9978C134.249 35.0935 135.102 34.6147 136.432 34.6147V32.6147ZM131.987 34.9451C131.112 36.364 130.706 38.0812 130.706 40.0405H132.706C132.706 38.354 133.055 37.0243 133.689 35.9953L131.987 34.9451ZM130.706 40.0405C130.706 42.1269 131.112 43.9123 132.019 45.3111L133.697 44.2231C133.067 43.2521 132.706 41.8865 132.706 40.0405H130.706ZM132.026 45.3218C133.017 46.8085 134.53 47.5249 136.393 47.5249V45.5249C135.105 45.5249 134.261 45.0694 133.69 44.2124L132.026 45.3218ZM173.151 21.7593H174.151V20.7593H173.151V21.7593ZM173.151 26.8569V27.8569H174.151V26.8569H173.151ZM164.538 26.8569V25.8569H163.538V26.8569H164.538ZM164.538 50.5483V51.5483H165.538V50.5483H164.538ZM158.483 50.5483H157.483V51.5483H158.483V50.5483ZM158.483 26.8569H159.483V25.8569H158.483V26.8569ZM149.831 26.8569H148.831V27.8569H149.831V26.8569ZM149.831 21.7593V20.7593H148.831V21.7593H149.831ZM172.151 21.7593V26.8569H174.151V21.7593H172.151ZM173.151 25.8569H164.538V27.8569H173.151V25.8569ZM163.538 26.8569V50.5483H165.538V26.8569H163.538ZM164.538 49.5483H158.483V51.5483H164.538V49.5483ZM159.483 50.5483V26.8569H157.483V50.5483H159.483ZM158.483 25.8569H149.831V27.8569H158.483V25.8569ZM150.831 26.8569V21.7593H148.831V26.8569H150.831ZM149.831 22.7593H173.151V20.7593H149.831V22.7593ZM188.053 28.771L187.857 29.7516L187.954 29.771H188.053V28.771ZM188.542 28.7905H189.542V27.8418L188.594 27.7919L188.542 28.7905ZM188.542 34.4937L188.431 35.4875L189.542 35.6109V34.4937H188.542ZM182.428 36.5835L181.543 36.1174L181.542 36.1195L182.428 36.5835ZM181.784 50.5483V51.5483H182.784V50.5483H181.784ZM176.178 50.5483H175.178V51.5483H176.178V50.5483ZM176.178 29.2593V28.2593H175.178V29.2593H176.178ZM181.491 29.2593H182.491V28.2593H181.491V29.2593ZM181.491 32.9702H180.491V36.5524L182.346 33.4882L181.491 32.9702ZM183.737 30.0601L184.369 30.8348L184.379 30.8267L183.737 30.0601ZM187.799 29.7515C187.831 29.7515 187.852 29.7525 187.864 29.7534C187.877 29.7544 187.873 29.7548 187.857 29.7516L188.249 27.7904C188.094 27.7594 187.937 27.7515 187.799 27.7515V29.7515ZM188.053 29.771C188.1 29.771 188.236 29.7758 188.489 29.7891L188.594 27.7919C188.352 27.7792 188.162 27.771 188.053 27.771V29.771ZM187.542 28.7905V34.4937H189.542V28.7905H187.542ZM188.652 33.4998C188.285 33.459 187.951 33.4309 187.652 33.4167L187.556 35.4144C187.804 35.4262 188.095 35.4502 188.431 35.4875L188.652 33.4998ZM187.652 33.4167C187.371 33.4033 187.132 33.396 186.94 33.396V35.396C187.087 35.396 187.29 35.4017 187.556 35.4144L187.652 33.4167ZM186.94 33.396C184.482 33.396 182.546 34.2143 181.543 36.1174L183.313 37.0496C183.847 36.036 184.918 35.396 186.94 35.396V33.396ZM181.542 36.1195C180.998 37.1583 180.784 38.6198 180.784 40.3726H182.784C182.784 38.7139 182.999 37.6493 183.314 37.0475L181.542 36.1195ZM180.784 40.3726V50.5483H182.784V40.3726H180.784ZM181.784 49.5483H176.178V51.5483H181.784V49.5483ZM177.178 50.5483V29.2593H175.178V50.5483H177.178ZM176.178 30.2593H181.491V28.2593H176.178V30.2593ZM180.491 29.2593V32.9702H182.491V29.2593H180.491ZM182.346 33.4882C183.194 32.0882 183.87 31.2421 184.369 30.8347L183.104 29.2854C182.327 29.9197 181.506 31.0137 180.635 32.4523L182.346 33.4882ZM184.379 30.8267C185.202 30.137 186.312 29.7515 187.799 29.7515V27.7515C185.953 27.7515 184.355 28.2383 183.095 29.2934L184.379 30.8267ZM203.561 40.1968H204.561V38.3854L203.028 39.3505L203.561 40.1968ZM202.487 40.7437L202.834 41.6814L202.843 41.678L202.852 41.6744L202.487 40.7437ZM199.772 41.3491L199.947 42.3337L199.956 42.332L199.772 41.3491ZM197.252 42.1108L196.744 41.2495L196.744 41.2499L197.252 42.1108ZM196.745 46.5444L196.108 47.3158L196.119 47.3244L196.129 47.3327L196.745 46.5444ZM201.979 46.1147L201.41 45.2925L201.405 45.296L201.979 46.1147ZM203.561 42.2671L204.561 42.2881L204.561 42.2776V42.2671H203.561ZM200.182 37.5991L200.305 38.5916L200.308 38.5912L200.182 37.5991ZM202.389 37.1108L201.997 36.1908L201.986 36.1959L202.389 37.1108ZM202.663 33.7319L202.171 34.6025L202.182 34.6088L202.193 34.6148L202.663 33.7319ZM197.213 34.2007L196.448 33.5575L196.442 33.5641L196.437 33.5709L197.213 34.2007ZM196.432 36.1538V37.1538H197.286L197.42 36.3106L196.432 36.1538ZM191.061 36.1538L190.063 36.091L189.996 37.1538H191.061V36.1538ZM192.624 31.564L191.837 30.9466L191.832 30.953L192.624 31.564ZM206.413 30.1382L206.867 29.2476L206.413 30.1382ZM209.167 47.5991L208.167 47.6261L208.167 47.6394L208.168 47.6526L209.167 47.5991ZM210.319 49.728H211.319V49.0898L210.74 48.821L210.319 49.728ZM210.319 50.5483V51.5483H211.319V50.5483H210.319ZM204.264 50.5483L203.334 50.9149L203.583 51.5483H204.264V50.5483ZM203.756 48.0483L204.753 47.9675L204.569 45.6919L203.021 47.3705L203.756 48.0483ZM201.1 50.1772L201.599 51.0438L201.605 51.0406L201.1 50.1772ZM192.252 49.5718L191.589 50.3205L191.598 50.3277L192.252 49.5718ZM193.405 39.2007L192.905 38.3343L192.903 38.3359L193.405 39.2007ZM198.288 37.8335L198.165 36.8411L198.161 36.8415L198.288 37.8335ZM203.028 39.3505C202.726 39.5406 202.424 39.6939 202.121 39.8129L202.852 41.6744C203.279 41.507 203.693 41.2957 204.094 41.043L203.028 39.3505ZM202.14 39.8059C201.865 39.9076 201.44 40.019 200.838 40.1319L201.206 42.0976C201.854 41.9761 202.406 41.8401 202.834 41.6814L202.14 39.8059ZM200.838 40.1319L199.588 40.3662L199.956 42.332L201.206 42.0976L200.838 40.1319ZM199.597 40.3646C198.402 40.5769 197.414 40.8546 196.744 41.2495L197.76 42.9722C198.107 42.7681 198.798 42.538 199.947 42.3337L199.597 40.3646ZM196.744 41.2499C195.555 41.9524 194.963 43.0827 194.963 44.4741H196.963C196.963 43.7301 197.231 43.2849 197.761 42.9718L196.744 41.2499ZM194.963 44.4741C194.963 45.5959 195.274 46.6278 196.108 47.3158L197.381 45.7731C197.173 45.6017 196.963 45.2534 196.963 44.4741H194.963ZM196.129 47.3327C196.859 47.9024 197.727 48.1694 198.678 48.1694V46.1694C198.119 46.1694 197.698 46.0198 197.36 45.7561L196.129 47.3327ZM198.678 48.1694C200.086 48.1694 201.386 47.7518 202.553 46.9335L201.405 45.296C200.566 45.884 199.666 46.1694 198.678 46.1694V48.1694ZM202.548 46.9369C203.941 45.9725 204.519 44.3012 204.561 42.2881L202.561 42.2461C202.525 43.9569 202.048 44.8508 201.41 45.2926L202.548 46.9369ZM204.561 42.2671V40.1968H202.561V42.2671H204.561ZM200.308 38.5912C201.349 38.4594 202.208 38.2837 202.793 38.0258L201.986 36.1959C201.685 36.3286 201.073 36.4784 200.057 36.607L200.308 38.5912ZM202.781 38.0308C203.291 37.8134 203.75 37.5032 204.082 37.063C204.422 36.611 204.581 36.0844 204.581 35.5288H202.581C202.581 35.6894 202.541 35.7845 202.484 35.8598C202.418 35.947 202.281 36.0697 201.997 36.1909L202.781 38.0308ZM204.581 35.5288C204.581 34.3995 204.159 33.3955 203.132 32.8491L202.193 34.6148C202.39 34.7195 202.581 34.9133 202.581 35.5288H204.581ZM203.155 32.8614C202.334 32.3977 201.244 32.2241 200.006 32.2241V34.2241C201.112 34.2241 201.793 34.3891 202.171 34.6025L203.155 32.8614ZM200.006 32.2241C198.558 32.2241 197.269 32.5801 196.448 33.5575L197.979 34.8439C198.252 34.5191 198.825 34.2241 200.006 34.2241V32.2241ZM196.437 33.5709C195.904 34.2277 195.593 35.0601 195.444 35.997L197.42 36.3106C197.531 35.6069 197.741 35.1372 197.99 34.8305L196.437 33.5709ZM196.432 35.1538H191.061V37.1538H196.432V35.1538ZM192.059 36.2166C192.167 34.5071 192.638 33.1814 193.415 32.1749L191.832 30.953C190.76 32.3424 190.19 34.0766 190.063 36.091L192.059 36.2166ZM193.41 32.1813C194.612 30.6499 196.769 29.7515 200.202 29.7515V27.7515C196.472 27.7515 193.578 28.728 191.837 30.9466L193.41 32.1813ZM200.202 29.7515C202.398 29.7515 204.308 30.1861 205.958 31.0287L206.867 29.2476C204.897 28.2413 202.667 27.7515 200.202 27.7515V29.7515ZM205.958 31.0287C207.34 31.7349 208.127 33.0661 208.127 35.3726H210.127C210.127 32.5488 209.105 30.3904 206.867 29.2476L205.958 31.0287ZM208.127 35.3726V45.1382H210.127V35.3726H208.127ZM208.127 45.1382C208.127 45.8271 208.141 46.657 208.167 47.6261L210.166 47.5721C210.14 46.6141 210.127 45.8034 210.127 45.1382H208.127ZM208.168 47.6526C208.189 48.0507 208.231 48.4159 208.303 48.7354C208.372 49.0433 208.482 49.375 208.679 49.657L210.318 48.51C210.333 48.5315 210.297 48.4857 210.255 48.2988C210.215 48.1235 210.183 47.8767 210.165 47.5456L208.168 47.6526ZM208.679 49.657C208.986 50.0951 209.415 50.4109 209.898 50.635L210.74 48.821C210.494 48.7066 210.376 48.5927 210.318 48.51L208.679 49.657ZM209.319 49.728V50.5483H211.319V49.728H209.319ZM210.319 49.5483H204.264V51.5483H210.319V49.5483ZM205.195 50.1818C205.045 49.8032 204.949 49.4658 204.898 49.1675L202.927 49.5073C203.006 49.9642 203.144 50.4342 203.334 50.9149L205.195 50.1818ZM204.898 49.1675C204.839 48.8258 204.79 48.4268 204.753 47.9675L202.76 48.1292C202.801 48.6335 202.856 49.0938 202.927 49.5073L204.898 49.1675ZM203.021 47.3705C202.322 48.1291 201.515 48.7768 200.596 49.3139L201.605 51.0406C202.691 50.4059 203.654 49.6342 204.492 48.7261L203.021 47.3705ZM200.601 49.3107C199.569 49.9054 198.389 50.2124 197.038 50.2124V52.2124C198.707 52.2124 200.236 51.8293 201.599 51.0437L200.601 49.3107ZM197.038 50.2124C195.312 50.2124 193.961 49.7283 192.907 48.8158L191.598 50.3277C193.07 51.6027 194.909 52.2124 197.038 52.2124V50.2124ZM192.915 48.8231C191.924 47.9454 191.377 46.6813 191.377 44.8843H189.377C189.377 47.1237 190.081 48.9846 191.59 50.3205L192.915 48.8231ZM191.377 44.8843C191.377 42.5714 192.239 41.0337 193.907 40.0655L192.903 38.3359C190.534 39.7114 189.377 41.9628 189.377 44.8843H191.377ZM193.904 40.067C194.843 39.5258 196.318 39.0922 198.414 38.8255L198.161 36.8415C195.96 37.1216 194.18 37.5995 192.905 38.3343L193.904 40.067ZM198.41 38.8259L200.305 38.5916L200.059 36.6067L198.165 36.8411L198.41 38.8259ZM226.803 36.896L225.812 37.026L225.926 37.896H226.803V36.896ZM226.002 34.7476L226.832 34.189L226.822 34.174L226.811 34.1594L226.002 34.7476ZM219.245 36.2515L218.307 35.9039L218.306 35.9058L219.245 36.2515ZM219.245 43.9663L220.181 43.6152L220.178 43.6082L219.245 43.9663ZM226.764 42.8335V41.8335H225.863L225.77 42.7294L226.764 42.8335ZM232.448 42.8335L233.445 42.9102L233.528 41.8335H232.448V42.8335ZM230.612 47.6382L229.802 47.0517L229.799 47.0557L230.612 47.6382ZM229.479 30.5483L228.901 31.3646L228.904 31.3667L229.479 30.5483ZM232.506 36.896V37.896H233.615L233.501 36.7935L232.506 36.896ZM227.795 36.766C227.671 35.8248 227.352 34.9607 226.832 34.189L225.173 35.3062C225.513 35.8104 225.727 36.3787 225.812 37.026L227.795 36.766ZM226.811 34.1594C225.953 32.9794 224.642 32.4585 223.092 32.4585V34.4585C224.173 34.4585 224.802 34.797 225.194 35.3357L226.811 34.1594ZM223.092 32.4585C221.984 32.4585 220.978 32.7365 220.137 33.3475C219.299 33.9552 218.703 34.8347 218.307 35.9039L220.182 36.599C220.476 35.8062 220.866 35.2893 221.312 34.966C221.752 34.646 222.326 34.4585 223.092 34.4585V32.4585ZM218.306 35.9058C217.885 37.0499 217.698 38.4964 217.698 40.1968H219.698C219.698 38.6159 219.875 37.4322 220.183 36.5972L218.306 35.9058ZM217.698 40.1968C217.698 41.8232 217.886 43.2154 218.311 44.3244L220.178 43.6082C219.875 42.8162 219.698 41.6954 219.698 40.1968H217.698ZM218.308 44.3174C218.694 45.3459 219.279 46.1916 220.102 46.7745C220.927 47.3591 221.912 47.6226 222.995 47.6226V45.6226C222.242 45.6226 221.683 45.4433 221.258 45.1425C220.831 44.84 220.459 44.3576 220.181 43.6152L218.308 44.3174ZM222.995 47.6226C224.457 47.6226 225.746 47.2255 226.557 46.1818L224.979 44.9539C224.697 45.3165 224.136 45.6226 222.995 45.6226V47.6226ZM226.557 46.1818C227.246 45.2969 227.627 44.1945 227.759 42.9376L225.77 42.7294C225.667 43.712 225.384 44.4326 224.979 44.9539L226.557 46.1818ZM226.764 43.8335H232.448V41.8335H226.764V43.8335ZM231.451 42.7568C231.336 44.2477 230.798 45.6755 229.802 47.0517L231.422 48.2247C232.613 46.5801 233.299 44.8047 233.445 42.9102L231.451 42.7568ZM229.799 47.0557C228.271 49.1881 226.013 50.2905 222.858 50.2905V52.2905C226.552 52.2905 229.463 50.958 231.425 48.2207L229.799 47.0557ZM222.858 50.2905C219.633 50.2905 217.45 49.3424 216.082 47.6214L214.516 48.8659C216.378 51.2074 219.234 52.2905 222.858 52.2905V50.2905ZM216.082 47.6214C214.64 45.8075 213.877 43.4073 213.877 40.3335H211.877C211.877 43.744 212.729 46.6173 214.516 48.8659L216.082 47.6214ZM213.877 40.3335C213.877 36.831 214.73 34.251 216.305 32.4582L214.802 31.1385C212.809 33.4081 211.877 36.5183 211.877 40.3335H213.877ZM216.305 32.4582C217.867 30.6788 220.035 29.7515 222.936 29.7515V27.7515C219.561 27.7515 216.807 28.8554 214.802 31.1385L216.305 32.4582ZM222.936 29.7515C225.458 29.7515 227.42 30.3165 228.901 31.3646L230.057 29.7321C228.152 28.3844 225.753 27.7515 222.936 27.7515V29.7515ZM228.904 31.3667C230.28 32.3329 231.215 34.1165 231.512 36.9985L233.501 36.7935C233.173 33.6078 232.089 31.1596 230.054 29.73L228.904 31.3667ZM232.506 35.896H226.803V37.896H232.506V35.896ZM236.295 21.8569V20.8569H235.295V21.8569H236.295ZM241.764 21.8569H242.764V20.8569H241.764V21.8569ZM241.764 37.3647H240.764V40.0474L242.52 38.0193L241.764 37.3647ZM248.698 29.3569V28.3569H248.241L247.942 28.7024L248.698 29.3569ZM255.592 29.3569L256.331 30.0315L257.86 28.3569H255.592V29.3569ZM248.151 37.5015L247.413 36.8269L246.913 37.374L247.291 38.0114L248.151 37.5015ZM255.885 50.5483V51.5483H257.641L256.745 50.0384L255.885 50.5483ZM249.167 50.5483L248.294 51.037L248.58 51.5483H249.167V50.5483ZM244.069 41.4468L244.941 40.9581L244.282 39.7804L243.347 40.7545L244.069 41.4468ZM241.764 43.8491L241.043 43.1568L240.764 43.447V43.8491H241.764ZM241.764 50.5483V51.5483H242.764V50.5483H241.764ZM236.295 50.5483H235.295V51.5483H236.295V50.5483ZM236.295 22.8569H241.764V20.8569H236.295V22.8569ZM240.764 21.8569V37.3647H242.764V21.8569H240.764ZM242.52 38.0193L249.454 30.0115L247.942 28.7024L241.008 36.7102L242.52 38.0193ZM248.698 30.3569H255.592V28.3569H248.698V30.3569ZM254.854 28.6824L247.413 36.8269L248.889 38.176L256.331 30.0315L254.854 28.6824ZM247.291 38.0114L255.025 51.0583L256.745 50.0384L249.011 36.9915L247.291 38.0114ZM255.885 49.5483H249.167V51.5483H255.885V49.5483ZM250.039 50.0597L244.941 40.9581L243.196 41.9354L248.294 51.037L250.039 50.0597ZM243.347 40.7545L241.043 43.1568L242.486 44.5414L244.79 42.1391L243.347 40.7545ZM240.764 43.8491V50.5483H242.764V43.8491H240.764ZM241.764 49.5483H236.295V51.5483H241.764V49.5483ZM237.295 50.5483V21.8569H235.295V50.5483H237.295ZM264.01 34.4937L263.262 33.83L263.256 33.8369L264.01 34.4937ZM262.682 37.7749L261.691 37.644L261.541 38.7749H262.682V37.7749ZM271.334 37.7749V38.7749H272.398L272.333 37.7131L271.334 37.7749ZM269.987 34.4351L269.292 35.1539L269.298 35.1596L269.304 35.1653L269.987 34.4351ZM275.319 32.8335L274.479 33.3758L274.484 33.3842L275.319 32.8335ZM276.94 37.228L277.929 37.0829L277.929 37.0812L276.94 37.228ZM277.116 41.4468V42.4468H278.102L278.116 41.461L277.116 41.4468ZM262.545 41.4468V40.4468H261.508L261.546 41.4833L262.545 41.4468ZM264.557 45.939L265.128 45.1177L265.12 45.1122L264.557 45.939ZM270.124 45.7632L269.455 45.0199L269.451 45.0232L270.124 45.7632ZM271.159 44.2983V43.2983H270.529L270.257 43.8662L271.159 44.2983ZM276.842 44.2983L277.836 44.411L277.962 43.2983H276.842V44.2983ZM274.87 48.146L274.126 47.477L274.119 47.4852L274.87 48.146ZM259.733 31.6421L259.009 30.952L259.007 30.9545L259.733 31.6421ZM267.018 32.2827C265.504 32.2827 264.205 32.7672 263.262 33.83L264.758 35.1573C265.248 34.6055 265.954 34.2827 267.018 34.2827V32.2827ZM263.256 33.8369C262.39 34.8309 261.891 36.1268 261.691 37.644L263.674 37.9058C263.838 36.6626 264.224 35.771 264.764 35.1504L263.256 33.8369ZM262.682 38.7749H271.334V36.7749H262.682V38.7749ZM272.333 37.7131C272.231 36.0739 271.719 34.6861 270.67 33.7048L269.304 35.1653C269.869 35.6945 270.256 36.5332 270.336 37.8367L272.333 37.7131ZM270.682 33.7163C269.687 32.7538 268.442 32.2827 267.018 32.2827V34.2827C267.964 34.2827 268.698 34.5799 269.292 35.1539L270.682 33.7163ZM267.018 29.6929C268.662 29.6929 270.109 30.0004 271.379 30.5947L272.227 28.7832C270.659 28.0495 268.916 27.6929 267.018 27.6929V29.6929ZM271.379 30.5947C272.614 31.1722 273.647 32.087 274.479 33.3758L276.159 32.2912C275.142 30.7155 273.831 29.5339 272.227 28.7832L271.379 30.5947ZM274.484 33.3842C275.228 34.5123 275.722 35.836 275.951 37.3749L277.929 37.0812C277.663 35.2867 277.076 33.6807 276.154 32.2828L274.484 33.3842ZM275.951 37.3731C276.082 38.2699 276.142 39.6129 276.116 41.4326L278.116 41.461C278.142 39.6088 278.084 38.1393 277.929 37.0829L275.951 37.3731ZM277.116 40.4468H262.545V42.4468H277.116V40.4468ZM261.546 41.4833C261.631 43.8011 262.374 45.6628 263.995 46.7657L265.12 45.1122C264.215 44.4964 263.616 43.3633 263.545 41.4102L261.546 41.4833ZM263.986 46.7602C264.947 47.4278 266.078 47.7397 267.331 47.7397V45.7397C266.421 45.7397 265.704 45.5179 265.128 45.1178L263.986 46.7602ZM267.331 47.7397C268.677 47.7397 269.863 47.3515 270.796 46.5031L269.451 45.0232C268.952 45.477 268.276 45.7397 267.331 45.7397V47.7397ZM270.792 46.5065C271.306 46.0444 271.722 45.4378 272.061 44.7305L270.257 43.8662C269.997 44.4089 269.722 44.7789 269.455 45.0199L270.792 46.5065ZM271.159 45.2983H276.842V43.2983H271.159V45.2983ZM275.849 44.1857C275.736 45.1766 275.21 46.2726 274.126 47.477L275.613 48.815C276.873 47.4152 277.662 45.9461 277.836 44.411L275.849 44.1857ZM274.119 47.4852C272.522 49.2988 270.267 50.2515 267.213 50.2515V52.2515C270.722 52.2515 273.571 51.1338 275.62 48.8068L274.119 47.4852ZM267.213 50.2515C264.741 50.2515 262.58 49.4624 260.69 47.8696L259.401 49.3989C261.652 51.2958 264.269 52.2515 267.213 52.2515V50.2515ZM260.69 47.8696C258.932 46.3884 257.94 43.8933 257.94 40.1187H255.94C255.94 44.2085 257.018 47.3906 259.401 49.3989L260.69 47.8696ZM257.94 40.1187C257.94 36.5957 258.828 34.0516 260.459 32.3297L259.007 30.9545C256.914 33.1648 255.94 36.2718 255.94 40.1187H257.94ZM260.457 32.3322C262.123 30.5844 264.28 29.6929 267.018 29.6929V27.6929C263.792 27.6929 261.092 28.7675 259.009 30.952L260.457 32.3322ZM292.702 28.771L292.506 29.7516L292.603 29.771H292.702V28.771ZM293.19 28.7905H294.19V27.8418L293.243 27.7919L293.19 28.7905ZM293.19 34.4937L293.08 35.4875L294.19 35.6109V34.4937H293.19ZM287.077 36.5835L286.192 36.1174L286.191 36.1195L287.077 36.5835ZM286.432 50.5483V51.5483H287.432V50.5483H286.432ZM280.827 50.5483H279.827V51.5483H280.827V50.5483ZM280.827 29.2593V28.2593H279.827V29.2593H280.827ZM286.139 29.2593H287.139V28.2593H286.139V29.2593ZM286.139 32.9702H285.139V36.5524L286.995 33.4882L286.139 32.9702ZM288.385 30.0601L289.018 30.8348L289.027 30.8267L288.385 30.0601ZM292.448 29.7515C292.48 29.7515 292.501 29.7525 292.513 29.7534C292.525 29.7544 292.522 29.7548 292.506 29.7516L292.898 27.7904C292.742 27.7594 292.585 27.7515 292.448 27.7515V29.7515ZM292.702 29.771C292.749 29.771 292.885 29.7758 293.137 29.7891L293.243 27.7919C293.001 27.7792 292.811 27.771 292.702 27.771V29.771ZM292.19 28.7905V34.4937H294.19V28.7905H292.19ZM293.3 33.4998C292.934 33.459 292.599 33.4309 292.3 33.4167L292.205 35.4144C292.452 35.4262 292.743 35.4502 293.08 35.4875L293.3 33.4998ZM292.3 33.4167C292.019 33.4033 291.78 33.396 291.588 33.396V35.396C291.735 35.396 291.939 35.4017 292.205 35.4144L292.3 33.4167ZM291.588 33.396C289.131 33.396 287.194 34.2143 286.192 36.1174L287.961 37.0496C288.495 36.036 289.567 35.396 291.588 35.396V33.396ZM286.191 36.1195C285.647 37.1583 285.432 38.6198 285.432 40.3726H287.432C287.432 38.7139 287.647 37.6493 287.962 37.0475L286.191 36.1195ZM285.432 40.3726V50.5483H287.432V40.3726H285.432ZM286.432 49.5483H280.827V51.5483H286.432V49.5483ZM281.827 50.5483V29.2593H279.827V50.5483H281.827ZM280.827 30.2593H286.139V28.2593H280.827V30.2593ZM285.139 29.2593V32.9702H287.139V29.2593H285.139ZM286.995 33.4882C287.842 32.0882 288.519 31.2421 289.018 30.8347L287.753 29.2854C286.976 29.9197 286.155 31.0137 285.284 32.4523L286.995 33.4882ZM289.027 30.8267C289.851 30.137 290.961 29.7515 292.448 29.7515V27.7515C290.601 27.7515 289.003 28.2383 287.743 29.2934L289.027 30.8267Z" fill="black" fill-opacity="0.2"/>
</svg>
